<svg width="16" height="16" viewBox="0 0 16 16" fill="none" xmlns="http://www.w3.org/2000/svg">
<g clip-path="url(#clip0_17_212)">
<path d="M2.33333 0.666656C1.42188 0.666656 0.666668 1.42187 0.666668 2.33332V13.6667C0.666668 14.5781 1.42188 15.3333 2.33333 15.3333H13.6667C14.5781 15.3333 15.3333 14.5781 15.3333 13.6667V2.33332C15.3333 1.42187 14.5781 0.666656 13.6667 0.666656H2.33333ZM2.33333 1.99999H13.6667C13.8568 1.99999 14 2.14322 14 2.33332V13.6667C14 13.8568 13.8568 14 13.6667 14H2.33333C2.14323 14 2 13.8568 2 13.6667V2.33332C2 2.14322 2.14323 1.99999 2.33333 1.99999ZM4.29167 3.14582C3.65886 3.14582 3.14583 3.65884 3.14583 4.29166C3.14583 4.92447 3.65886 5.43749 4.29167 5.43749C4.92448 5.43749 5.4375 4.92447 5.4375 4.29166C5.4375 3.65884 4.92448 3.14582 4.29167 3.14582ZM10.3125 6.18749C9.35677 6.18749 8.72136 6.71093 8.45833 7.20832H8.41667V6.33332H6.54167V12.6667H8.5V9.54166C8.5 8.71614 8.66406 7.91666 9.6875 7.91666C10.6953 7.91666 10.7083 8.84895 10.7083 9.58332V12.6667H12.6667V9.18749C12.6667 7.48437 12.3047 6.18749 10.3125 6.18749ZM3.33333 6.33332V12.6667H5.3125V6.33332H3.33333Z" fill="black"/>
</g>
<defs>
<clipPath id="clip0_17_212">
<rect width="16" height="16" fill="white"/>
</clipPath>
</defs>
</svg>
