<svg width="16" height="16" viewBox="0 0 16 16" fill="none" xmlns="http://www.w3.org/2000/svg">
<mask id="path-1-inside-1_8_92" fill="white">
<path fill-rule="evenodd" clip-rule="evenodd" d="M0 4.66669C0 3.56212 0.895431 2.66669 2 2.66669H14C15.1046 2.66669 16 3.56212 16 4.66669V6.00002C14.8954 6.00002 14 6.89545 14 8.00002C14 9.10459 14.8954 10 16 10V11.3334C16 12.4379 15.1046 13.3334 14 13.3334H2C0.895431 13.3334 0 12.4379 0 11.3334V10C1.10457 10 2 9.10459 2 8.00002C2 6.89545 1.10457 6.00002 0 6.00002V4.66669Z"/>
</mask>
<path d="M16 6.00002V7.50002H17.5V6.00002H16ZM16 10H17.5V8.50002H16V10ZM0 10V8.50002H-1.5V10H0ZM0 6.00002H-1.5V7.50002H0V6.00002ZM2 1.16669C0.0670018 1.16669 -1.5 2.73369 -1.5 4.66669H1.5C1.5 4.39054 1.72386 4.16669 2 4.16669V1.16669ZM14 1.16669H2V4.16669H14V1.16669ZM17.5 4.66669C17.5 2.73369 15.933 1.16669 14 1.16669V4.16669C14.2761 4.16669 14.5 4.39054 14.5 4.66669H17.5ZM17.5 6.00002V4.66669H14.5V6.00002H17.5ZM15.5 8.00002C15.5 7.72388 15.7239 7.50002 16 7.50002V4.50002C14.067 4.50002 12.5 6.06702 12.5 8.00002H15.5ZM16 8.50002C15.7239 8.50002 15.5 8.27616 15.5 8.00002H12.5C12.5 9.93302 14.067 11.5 16 11.5V8.50002ZM17.5 11.3334V10H14.5V11.3334H17.5ZM14 14.8334C15.933 14.8334 17.5 13.2663 17.5 11.3334H14.5C14.5 11.6095 14.2761 11.8334 14 11.8334V14.8334ZM2 14.8334H14V11.8334H2V14.8334ZM-1.5 11.3334C-1.5 13.2663 0.0670034 14.8334 2 14.8334V11.8334C1.72386 11.8334 1.5 11.6095 1.5 11.3334H-1.5ZM-1.5 10V11.3334H1.5V10H-1.5ZM0.5 8.00002C0.5 8.27616 0.276142 8.50002 0 8.50002V11.5C1.933 11.5 3.5 9.93302 3.5 8.00002H0.5ZM0 7.50002C0.276142 7.50002 0.5 7.72388 0.5 8.00002H3.5C3.5 6.06702 1.933 4.50002 0 4.50002V7.50002ZM-1.5 4.66669V6.00002H1.5V4.66669H-1.5Z" fill="#202527" mask="url(#path-1-inside-1_8_92)"/>
</svg>
